<svg width="90" height="93" viewBox="0 0 90 93" fill="none" xmlns="http://www.w3.org/2000/svg">
<path d="M18.75 81.375C17.6875 81.375 16.7969 81.0036 16.0781 80.2609C15.3594 79.5182 15 78.5979 15 77.5V73.625C11.875 73.625 9.21875 72.4948 7.03125 70.2344C4.84375 67.974 3.75 65.2292 3.75 62V42.625C3.75 39.3958 4.84375 36.651 7.03125 34.3906C9.21875 32.1302 11.875 31 15 31V23.25C15 20.0208 16.0938 17.276 18.2813 15.0156C20.4688 12.7552 23.125 11.625 26.25 11.625H63.75C66.875 11.625 69.5313 12.7552 71.7188 15.0156C73.9063 17.276 75 20.0208 75 23.25V31C78.125 31 80.7813 32.1302 82.9688 34.3906C85.1563 36.651 86.25 39.3958 86.25 42.625V62C86.25 65.2292 85.1563 67.974 82.9688 70.2344C80.7813 72.4948 78.125 73.625 75 73.625V77.5C75 78.5979 74.6406 79.5182 73.9219 80.2609C73.2031 81.0036 72.3125 81.375 71.25 81.375C70.1875 81.375 69.2969 81.0036 68.5781 80.2609C67.8594 79.5182 67.5 78.5979 67.5 77.5V73.625H22.5V77.5C22.5 78.5979 22.1406 79.5182 21.4219 80.2609C20.7031 81.0036 19.8125 81.375 18.75 81.375ZM15 65.875H75C76.0625 65.875 76.9531 65.5036 77.6719 64.7609C78.3906 64.0182 78.75 63.0979 78.75 62V42.625C78.75 41.5271 78.3906 40.6068 77.6719 39.8641C76.9531 39.1214 76.0625 38.75 75 38.75C73.9375 38.75 73.0469 39.1214 72.3281 39.8641C71.6094 40.6068 71.25 41.5271 71.25 42.625V58.125H18.75V42.625C18.75 41.5271 18.3906 40.6068 17.6719 39.8641C16.9531 39.1214 16.0625 38.75 15 38.75C13.9375 38.75 13.0469 39.1214 12.3281 39.8641C11.6094 40.6068 11.25 41.5271 11.25 42.625V62C11.25 63.0979 11.6094 64.0182 12.3281 64.7609C13.0469 65.5036 13.9375 65.875 15 65.875ZM26.25 50.375H63.75V42.625C63.75 40.8812 64.0938 39.299 64.7813 37.8781C65.4688 36.4573 66.375 35.1979 67.5 34.1V23.25C67.5 22.1521 67.1406 21.2318 66.4219 20.4891C65.7031 19.7464 64.8125 19.375 63.75 19.375H26.25C25.1875 19.375 24.2969 19.7464 23.5781 20.4891C22.8594 21.2318 22.5 22.1521 22.5 23.25V34.1C23.625 35.1979 24.5313 36.4573 25.2188 37.8781C25.9063 39.299 26.25 40.8812 26.25 42.625V50.375Z" fill="#E6E3E1"/>
</svg>
