<svg width="89" height="85" viewBox="0 0 89 85" fill="none" xmlns="http://www.w3.org/2000/svg">
<path d="M45.2125 77.375V34.0719C44.2437 32.651 42.9521 31.5208 41.3375 30.6812C39.7229 29.8417 37.963 29.4219 36.0578 29.4219C34.1526 29.4219 32.3927 29.8901 30.7781 30.8266C29.1635 31.763 27.8396 32.974 26.8062 34.4594H21.1875C21.1875 27.0323 23.8005 20.7031 29.0266 15.4719C34.2527 10.2406 40.6167 7.625 48.1187 7.625C55.6479 7.625 62.0348 10.2406 67.2797 15.4719C72.5245 20.7031 75.1469 27.0323 75.1469 34.4594H69.5281C68.4948 32.974 67.1757 31.763 65.5708 30.8266C63.9659 29.8901 62.185 29.4219 60.2281 29.4219C58.3552 29.4219 56.6115 29.8417 54.9969 30.6812C53.3823 31.5208 52.0583 32.6833 51.025 34.1687V77.375H45.2125ZM47.4406 27.9687H48.8937C50.3972 26.588 52.1132 25.5162 54.0417 24.7535C55.9701 23.9907 58.0646 23.6094 60.325 23.6094C61.5237 23.6094 62.6952 23.7224 63.8396 23.9484C64.984 24.1745 66.1052 24.5135 67.2031 24.9656C65.4594 21.4781 62.8922 18.6849 59.5016 16.5859C56.1109 14.487 52.3328 13.4375 48.1672 13.4375C44.0016 13.4375 40.2234 14.487 36.8328 16.5859C33.4422 18.6849 30.875 21.4781 29.1312 24.9656C30.2292 24.5135 31.3503 24.1745 32.4947 23.9484C33.6392 23.7224 34.8107 23.6094 36.0094 23.6094C38.2698 23.6094 40.3642 23.9907 42.2927 24.7535C44.2211 25.5162 45.9371 26.588 47.4406 27.9687ZM58.775 77.375V54.5125H81.25V77.375H75.4375V60.325H64.5875V77.375H58.775ZM11.5 77.375V66.1375C10.4021 66.1375 9.43592 65.7513 8.6015 64.9789C7.76644 64.2065 7.27948 63.2687 7.14062 62.1656L3.75 23.8031H5.55866C6.66884 23.8031 7.64599 24.1906 8.49009 24.9656C9.3342 25.7406 9.82083 26.6771 9.95 27.775L12.4687 54.5125H31.65C33.2 54.5125 34.5562 55.0937 35.7187 56.2562C36.8812 57.4187 37.4625 58.775 37.4625 60.325V66.1375H33.4906V77.375H29.6156V66.1375H15.375V77.375H11.5Z" fill="white"/>
</svg>
