<svg width="90" height="88" viewBox="0 0 90 88" fill="none" xmlns="http://www.w3.org/2000/svg">
<path d="M69.5562 61.3219L59.9656 51.7313L64.0344 47.6625L69.5562 53.0875L83.2156 39.4281L87.2844 43.4969L69.5562 61.3219ZM42.625 81.2781L33.0344 72.4625C27.4156 67.2958 22.7495 62.8719 19.0359 59.1906C15.3224 55.5094 12.3354 52.1833 10.075 49.2125C7.81458 46.2417 6.21615 43.4484 5.27969 40.8328C4.34323 38.2172 3.875 35.424 3.875 32.4531C3.875 26.6406 5.82865 21.7161 9.73594 17.6797C13.6432 13.6432 18.4708 11.625 24.2187 11.625C27.9 11.625 31.3068 12.4807 34.4391 14.1922C37.5714 15.9036 40.3 18.4063 42.625 21.7C45.3375 18.2125 48.2115 15.6615 51.2469 14.0469C54.2823 12.4323 57.5437 11.625 61.0312 11.625C66.2625 11.625 70.638 13.401 74.1578 16.9531C77.6776 20.5052 79.825 24.8 80.6 29.8375H74.8844C74.3031 26.2854 72.8016 23.3307 70.3797 20.9734C67.9578 18.6161 64.8417 17.4375 61.0312 17.4375C57.7375 17.4375 54.6698 18.4385 51.8281 20.4406C48.9865 22.4427 46.6937 25.2844 44.95 28.9656H40.2031C38.524 25.349 36.2635 22.5234 33.4219 20.4891C30.5802 18.4547 27.5125 17.4375 24.2187 17.4375C19.9562 17.4375 16.4687 18.8745 13.7562 21.7484C11.0437 24.6224 9.6875 28.1906 9.6875 32.4531C9.6875 34.9719 10.188 37.426 11.1891 39.8156C12.1901 42.2052 13.9339 44.9177 16.4203 47.9531C18.9068 50.9885 22.2812 54.5406 26.5437 58.6094C30.8062 62.6781 36.1667 67.6833 42.625 73.625C44.6917 71.7521 46.6453 70.0083 48.4859 68.3938C50.3266 66.7792 52.151 65.1969 53.9594 63.6469L54.5891 64.2766C55.0089 64.6964 55.4771 65.1484 55.9937 65.6328C56.5104 66.1172 56.9786 66.5693 57.3984 66.9891L58.0281 67.6188C56.2844 69.1688 54.476 70.751 52.6031 72.3656C50.7302 73.9802 48.7281 75.7563 46.5969 77.6938L42.625 81.2781Z" fill="white"/>
</svg>
