<svg width="128" height="128" viewBox="0 0 128 128" fill="none" xmlns="http://www.w3.org/2000/svg">
<path d="M26.6667 117.333C23.7333 117.333 21.2222 116.289 19.1333 114.2C17.0444 112.111 16 109.6 16 106.667V32C16 29.0666 17.0444 26.5555 19.1333 24.4666C21.2222 22.3777 23.7333 21.3333 26.6667 21.3333H32V10.6666H42.6667V21.3333H85.3333V10.6666H96V21.3333H101.333C104.267 21.3333 106.778 22.3777 108.867 24.4666C110.956 26.5555 112 29.0666 112 32V106.667C112 109.6 110.956 112.111 108.867 114.2C106.778 116.289 104.267 117.333 101.333 117.333H26.6667ZM26.6667 106.667H101.333V53.3333H26.6667V106.667ZM26.6667 42.6666H101.333V32H26.6667V42.6666ZM64 74.6666C62.4889 74.6666 61.2222 74.1555 60.2 73.1333C59.1778 72.1111 58.6667 70.8444 58.6667 69.3333C58.6667 67.8222 59.1778 66.5555 60.2 65.5333C61.2222 64.5111 62.4889 64 64 64C65.5111 64 66.7778 64.5111 67.8 65.5333C68.8222 66.5555 69.3333 67.8222 69.3333 69.3333C69.3333 70.8444 68.8222 72.1111 67.8 73.1333C66.7778 74.1555 65.5111 74.6666 64 74.6666ZM42.6667 74.6666C41.1556 74.6666 39.8889 74.1555 38.8667 73.1333C37.8444 72.1111 37.3333 70.8444 37.3333 69.3333C37.3333 67.8222 37.8444 66.5555 38.8667 65.5333C39.8889 64.5111 41.1556 64 42.6667 64C44.1778 64 45.4444 64.5111 46.4667 65.5333C47.4889 66.5555 48 67.8222 48 69.3333C48 70.8444 47.4889 72.1111 46.4667 73.1333C45.4444 74.1555 44.1778 74.6666 42.6667 74.6666ZM85.3333 74.6666C83.8222 74.6666 82.5556 74.1555 81.5333 73.1333C80.5111 72.1111 80 70.8444 80 69.3333C80 67.8222 80.5111 66.5555 81.5333 65.5333C82.5556 64.5111 83.8222 64 85.3333 64C86.8445 64 88.1111 64.5111 89.1333 65.5333C90.1556 66.5555 90.6667 67.8222 90.6667 69.3333C90.6667 70.8444 90.1556 72.1111 89.1333 73.1333C88.1111 74.1555 86.8445 74.6666 85.3333 74.6666ZM64 96C62.4889 96 61.2222 95.4888 60.2 94.4666C59.1778 93.4444 58.6667 92.1777 58.6667 90.6666C58.6667 89.1555 59.1778 87.8888 60.2 86.8666C61.2222 85.8444 62.4889 85.3333 64 85.3333C65.5111 85.3333 66.7778 85.8444 67.8 86.8666C68.8222 87.8888 69.3333 89.1555 69.3333 90.6666C69.3333 92.1777 68.8222 93.4444 67.8 94.4666C66.7778 95.4888 65.5111 96 64 96ZM42.6667 96C41.1556 96 39.8889 95.4888 38.8667 94.4666C37.8444 93.4444 37.3333 92.1777 37.3333 90.6666C37.3333 89.1555 37.8444 87.8888 38.8667 86.8666C39.8889 85.8444 41.1556 85.3333 42.6667 85.3333C44.1778 85.3333 45.4444 85.8444 46.4667 86.8666C47.4889 87.8888 48 89.1555 48 90.6666C48 92.1777 47.4889 93.4444 46.4667 94.4666C45.4444 95.4888 44.1778 96 42.6667 96ZM85.3333 96C83.8222 96 82.5556 95.4888 81.5333 94.4666C80.5111 93.4444 80 92.1777 80 90.6666C80 89.1555 80.5111 87.8888 81.5333 86.8666C82.5556 85.8444 83.8222 85.3333 85.3333 85.3333C86.8445 85.3333 88.1111 85.8444 89.1333 86.8666C90.1556 87.8888 90.6667 89.1555 90.6667 90.6666C90.6667 92.1777 90.1556 93.4444 89.1333 94.4666C88.1111 95.4888 86.8445 96 85.3333 96Z" fill="black"/>
</svg>
