<svg width="134" height="128" viewBox="0 0 134 128" fill="none" xmlns="http://www.w3.org/2000/svg">
<g clip-path="url(#clip0_36_37)">
<path d="M105.208 127.453V111.453H88.5242V100.786H105.208V84.7864H116.33V100.786H133.014V111.453H116.33V127.453H105.208ZM38.4729 116.786C35.4142 116.786 32.7958 115.742 30.6176 113.653C28.4395 111.564 27.3504 109.053 27.3504 106.12V42.1197C27.3504 39.1864 28.4395 36.6753 30.6176 34.5864C32.7958 32.4975 35.4142 31.453 38.4729 31.453H44.0342V20.7864H55.1567V31.453H88.5242V20.7864H99.6467V31.453H105.208C108.267 31.453 110.885 32.4975 113.063 34.5864C115.241 36.6753 116.33 39.1864 116.33 42.1197V74.653C114.477 74.3864 112.623 74.253 110.769 74.253C108.915 74.253 107.062 74.3864 105.208 74.653V63.453H38.4729V106.12H77.4017C77.4017 107.897 77.5407 109.675 77.8188 111.453C78.0968 113.231 78.6066 115.009 79.3481 116.786H38.4729ZM38.4729 52.7864H105.208V42.1197H38.4729V52.7864Z" fill="black"/>
</g>
<defs>
<clipPath id="clip0_36_37">
<rect width="133.47" height="128" fill="white"/>
</clipPath>
</defs>
</svg>
