<svg width="73" height="73" viewBox="0 0 73 73" fill="none" xmlns="http://www.w3.org/2000/svg">
<path d="M6.08333 27.375V18.25C6.08333 16.5771 6.67899 15.145 7.87031 13.9537C9.06163 12.7623 10.4937 12.1667 12.1667 12.1667H60.8333C62.5062 12.1667 63.9384 12.7623 65.1297 13.9537C66.321 15.145 66.9167 16.5771 66.9167 18.25V36.5H60.8333V18.25H12.1667V27.375H6.08333ZM12.1667 60.8334C10.4937 60.8334 9.06163 60.2377 7.87031 59.0464C6.67899 57.8551 6.08333 56.4229 6.08333 54.75V45.625H12.1667V54.75H33.4583V60.8334H12.1667ZM54.75 68.4375L50.1115 64.4834C45.6503 60.6813 42.7734 57.9311 41.4807 56.2328C40.188 54.5346 39.5417 52.7729 39.5417 50.9479C39.5417 48.6667 40.3528 46.7023 41.975 45.0547C43.5972 43.4071 45.5743 42.5834 47.9062 42.5834C49.2243 42.5834 50.479 42.8875 51.6703 43.4959C52.8616 44.1042 53.8882 44.9913 54.75 46.1573C55.5611 44.9913 56.5623 44.1042 57.7536 43.4959C58.945 42.8875 60.225 42.5834 61.5937 42.5834C63.875 42.5834 65.8394 43.4071 67.487 45.0547C69.1345 46.7023 69.9583 48.6667 69.9583 50.9479C69.9583 52.7729 69.2993 54.5346 67.9812 56.2328C66.6632 57.9311 63.7736 60.6813 59.3125 64.4834L54.75 68.4375ZM54.75 60.3771L56.8792 58.6281C59.7181 56.1948 61.5937 54.4839 62.5062 53.4953C63.4187 52.5068 63.875 51.6577 63.875 50.9479C63.875 50.3396 63.6469 49.8073 63.1906 49.3511C62.7344 48.8948 62.2021 48.6667 61.5937 48.6667C61.1882 48.6667 60.8207 48.7554 60.4911 48.9328C60.1616 49.1103 59.7687 49.4018 59.3125 49.8073L54.75 54.1417L50.1115 49.8073C49.6552 49.4018 49.2623 49.1103 48.9328 48.9328C48.6033 48.7554 48.2611 48.6667 47.9062 48.6667C47.2472 48.6667 46.7023 48.8948 46.2714 49.3511C45.8404 49.8073 45.625 50.3396 45.625 50.9479C45.625 51.6577 46.0686 52.5068 46.9557 53.4953C47.8429 54.4839 49.7059 56.1948 52.5448 58.6281L54.75 60.3771ZM21.2917 51.7084C20.6833 51.7084 20.1384 51.5689 19.6568 51.2901C19.1752 51.0113 18.8076 50.5931 18.5542 50.0354L13.3073 39.5417H6.08333V33.4584H15.2083C15.766 33.4584 16.2856 33.6104 16.7672 33.9146C17.2488 34.2188 17.6163 34.6243 17.8698 35.1313L21.2917 41.899L30.7208 22.9646C30.9743 22.4577 31.3545 22.0775 31.8615 21.824C32.3684 21.5705 32.9007 21.4438 33.4583 21.4438C34.016 21.4438 34.5483 21.5705 35.0552 21.824C35.5621 22.0775 35.9424 22.4577 36.1958 22.9646L41.3667 33.4584H51.7083V39.5417H39.5417C38.9333 39.5417 38.3884 39.4023 37.9068 39.1235C37.4252 38.8446 37.0576 38.4264 36.8042 37.8688L33.4583 31.1771L23.9531 50.0354C23.6996 50.5931 23.3321 51.0113 22.8505 51.2901C22.3689 51.5689 21.8493 51.7084 21.2917 51.7084Z" fill="black"/>
</svg>
