<svg width="66" height="61" viewBox="0 0 66 61" fill="none" xmlns="http://www.w3.org/2000/svg">
<path d="M33.1012 8.6875C20.793 8.6875 10.7733 18.9038 10.7689 31.4644C10.7666 35.4794 11.7971 39.399 13.7509 42.8528L10.7208 54.3125L22.4175 51.4922C25.6789 53.308 29.3505 54.2612 33.0881 54.2635H33.0968C45.4028 54.2635 55.4181 44.0449 55.4248 31.4867C55.4293 25.398 53.1092 19.6734 48.8932 15.3664C44.6772 11.0617 39.0742 8.68978 33.1012 8.6875ZM33.0968 13.25C37.8717 13.2523 42.3589 15.1521 45.7322 18.5922C49.1054 22.0369 50.9585 26.614 50.954 31.4822C50.9495 41.5288 42.9417 49.701 33.0925 49.701C30.1127 49.6987 27.161 48.9352 24.5612 47.4866L23.0549 46.649L21.3915 47.0499L16.9905 48.1104L18.0645 44.038L18.5492 42.2112L17.6236 40.5715C16.0632 37.8158 15.2375 34.6649 15.2397 31.4644C15.2442 21.4223 23.2543 13.25 33.0968 13.25ZM25.1986 20.9492C24.8253 20.9492 24.2217 21.0918 23.7098 21.6621C23.1979 22.2301 21.7538 23.6059 21.7538 26.4073C21.7538 29.2087 23.7535 31.9166 24.0329 32.2976C24.3101 32.6762 27.8927 38.6067 33.564 40.8879C38.2762 42.7836 39.2333 42.4095 40.2571 42.3137C41.2809 42.2202 43.5601 40.9391 44.025 39.6091C44.49 38.2792 44.4911 37.1351 44.3525 36.9002C44.2139 36.6629 43.8416 36.5214 43.2828 36.2363C42.7262 35.9511 39.9831 34.5765 39.4712 34.3872C38.9593 34.1979 38.5849 34.102 38.2138 34.6724C37.8427 35.2427 36.7763 36.5215 36.4499 36.9001C36.1236 37.2811 35.7994 37.3323 35.2405 37.0472C34.6817 36.7597 32.8848 36.1569 30.7522 34.2179C29.0935 32.71 27.9743 30.8495 27.648 30.2792C27.3238 29.7111 27.6174 29.3991 27.8968 29.1162C28.1472 28.8607 28.4513 28.4513 28.7308 28.1182C29.0079 27.7851 29.1041 27.5478 29.2896 27.1691C29.4751 26.7905 29.3802 26.4563 29.2416 26.1711C29.103 25.8859 28.0176 23.0742 27.5213 21.9472C27.1033 21.0005 26.6618 20.9785 26.2639 20.9625C25.9398 20.9489 25.5697 20.9492 25.1986 20.9492Z" fill="#E6E3E1"/>
</svg>
