<svg width="73" height="73" viewBox="0 0 73 73" fill="none" xmlns="http://www.w3.org/2000/svg">
<path d="M27.375 42.5833H33.4583V27.375H27.375V42.5833ZM15.2083 38.0208C12.8764 36.8548 11.026 35.1693 9.6573 32.964C8.28855 30.7588 7.60417 28.3635 7.60417 25.7781C7.60417 21.976 8.90955 18.7569 11.5203 16.1208C14.1311 13.4847 17.3375 12.1666 21.1396 12.1666C21.7479 12.1666 22.3689 12.2173 23.0026 12.3187C23.6363 12.4201 24.2573 12.5469 24.8656 12.6989C26.133 10.6205 27.7806 8.99824 29.8083 7.83227C31.8361 6.6663 34.0667 6.08331 36.5 6.08331C38.9333 6.08331 41.1639 6.6663 43.1917 7.83227C45.2195 8.99824 46.867 10.6205 48.1344 12.6989C48.7427 12.5469 49.351 12.4201 49.9594 12.3187C50.5677 12.2173 51.2014 12.1666 51.8604 12.1666C55.6625 12.1666 58.8689 13.4847 61.4797 16.1208C64.0905 18.7569 65.3958 21.976 65.3958 25.7781C65.3958 28.3635 64.7115 30.7588 63.3427 32.964C61.974 35.1693 60.1236 36.8548 57.7917 38.0208V54.75H15.2083V38.0208ZM39.5417 42.5833H45.625V27.375H39.5417V42.5833ZM21.2917 48.6666H51.7083V34.2948L55.0542 32.6219C56.3722 31.9628 57.4115 31.0377 58.1719 29.8463C58.9323 28.655 59.3125 27.3243 59.3125 25.8541C59.3125 23.725 58.5901 21.9253 57.1453 20.4552C55.7005 18.985 53.9389 18.25 51.8604 18.25C51.3028 18.25 50.7958 18.3007 50.3396 18.4021C49.8833 18.5035 49.4017 18.6302 48.8948 18.7823L45.3208 19.7708L42.9635 15.8166C42.2538 14.6507 41.3287 13.7508 40.188 13.1172C39.0474 12.4835 37.8181 12.1666 36.5 12.1666C35.1819 12.1666 33.9526 12.4835 32.812 13.1172C31.6714 13.7508 30.7462 14.6507 30.0365 15.8166L27.6792 19.7708L24.0292 18.7823C23.5222 18.6809 23.028 18.5668 22.5464 18.4401C22.0648 18.3133 21.5705 18.25 21.0635 18.25C18.9851 18.25 17.2361 18.985 15.8167 20.4552C14.3972 21.9253 13.6875 23.725 13.6875 25.8541C13.6875 27.3243 14.0677 28.655 14.8281 29.8463C15.5885 31.0377 16.6278 31.9628 17.9458 32.6219L21.2917 34.2948V48.6666ZM15.2083 54.75H21.2917V60.8333H51.7083V54.75H57.7917V66.9166H15.2083V54.75Z" fill="black"/>
</svg>
