<svg width="73" height="73" viewBox="0 0 73 73" fill="none" xmlns="http://www.w3.org/2000/svg">
<path d="M69.9583 42.5833H56.0427C55.8906 41.5188 55.6498 40.4795 55.3203 39.4656C54.9908 38.4517 54.5726 37.4632 54.0656 36.5H63.6469C63.4441 36.1451 63.216 35.841 62.9625 35.5875C62.709 35.334 62.4049 35.1059 62.05 34.9031C60.7319 34.1427 59.2238 33.5851 57.5255 33.2302C55.8273 32.8754 53.8882 32.6979 51.7083 32.6979H51.4802C50.4663 31.532 49.3637 30.5181 48.1724 29.6563C46.9811 28.7945 45.6757 28.0594 44.2563 27.4511C45.4222 27.1976 46.6262 26.9948 47.8682 26.8427C49.1102 26.6906 50.3903 26.6146 51.7083 26.6146C54.3951 26.6146 56.9045 26.8934 59.2365 27.4511C61.5684 28.0087 63.7483 28.8198 65.776 29.8844C67.0941 30.5941 68.1207 31.646 68.8557 33.0401C69.5908 34.4342 69.9583 36.0184 69.9583 37.7927V42.5833ZM51.7083 24.3333C49.1736 24.3333 47.0191 23.4462 45.2448 21.6719C43.4705 19.8976 42.5833 17.7431 42.5833 15.2083C42.5833 12.6736 43.4705 10.5191 45.2448 8.7448C47.0191 6.9705 49.1736 6.08334 51.7083 6.08334C54.2431 6.08334 56.3976 6.9705 58.1719 8.7448C59.9462 10.5191 60.8333 12.6736 60.8333 15.2083C60.8333 17.7431 59.9462 19.8976 58.1719 21.6719C56.3976 23.4462 54.2431 24.3333 51.7083 24.3333ZM51.7083 18.25C52.5701 18.25 53.2925 17.9585 53.8755 17.3755C54.4585 16.7925 54.75 16.0701 54.75 15.2083C54.75 14.3465 54.4585 13.6241 53.8755 13.0412C53.2925 12.4582 52.5701 12.1667 51.7083 12.1667C50.8465 12.1667 50.1241 12.4582 49.5411 13.0412C48.9582 13.6241 48.6667 14.3465 48.6667 15.2083C48.6667 16.0701 48.9582 16.7925 49.5411 17.3755C50.1241 17.9585 50.8465 18.25 51.7083 18.25ZM3.04167 42.5833V37.7927C3.04167 36.0184 3.40921 34.4342 4.14428 33.0401C4.87935 31.646 5.90591 30.5941 7.22396 29.8844C9.25174 28.8198 11.4316 28.0087 13.7635 27.4511C16.0955 26.8934 18.6049 26.6146 21.2917 26.6146C22.6097 26.6146 23.8898 26.6906 25.1318 26.8427C26.3738 26.9948 27.5778 27.1976 28.7438 27.4511C27.3243 28.0594 26.0189 28.7945 24.8276 29.6563C23.6363 30.5181 22.5337 31.532 21.5198 32.6979H21.2917C19.1118 32.6979 17.1727 32.8754 15.4745 33.2302C13.7762 33.5851 12.2681 34.1427 10.95 34.9031C10.5951 35.1059 10.291 35.334 10.0375 35.5875C9.78403 35.841 9.55591 36.1451 9.35313 36.5H18.9344C18.4274 37.4632 18.0092 38.4517 17.6797 39.4656C17.3502 40.4795 17.1094 41.5188 16.9573 42.5833H3.04167ZM21.2917 24.3333C18.7569 24.3333 16.6024 23.4462 14.8281 21.6719C13.0538 19.8976 12.1667 17.7431 12.1667 15.2083C12.1667 12.6736 13.0538 10.5191 14.8281 8.7448C16.6024 6.9705 18.7569 6.08334 21.2917 6.08334C23.8264 6.08334 25.9809 6.9705 27.7552 8.7448C29.5295 10.5191 30.4167 12.6736 30.4167 15.2083C30.4167 17.7431 29.5295 19.8976 27.7552 21.6719C25.9809 23.4462 23.8264 24.3333 21.2917 24.3333ZM21.2917 18.25C22.1535 18.25 22.8759 17.9585 23.4589 17.3755C24.0418 16.7925 24.3333 16.0701 24.3333 15.2083C24.3333 14.3465 24.0418 13.6241 23.4589 13.0412C22.8759 12.4582 22.1535 12.1667 21.2917 12.1667C20.4299 12.1667 19.7075 12.4582 19.1245 13.0412C18.5415 13.6241 18.25 14.3465 18.25 15.2083C18.25 16.0701 18.5415 16.7925 19.1245 17.3755C19.7075 17.9585 20.4299 18.25 21.2917 18.25ZM36.5 51.7083C34.8271 51.7083 33.395 51.1127 32.2036 49.9214C31.0123 48.73 30.4167 47.2979 30.4167 45.625V36.5C30.4167 34.8271 31.0123 33.395 32.2036 32.2037C33.395 31.0123 34.8271 30.4167 36.5 30.4167C38.1729 30.4167 39.605 31.0123 40.7964 32.2037C41.9877 33.395 42.5833 34.8271 42.5833 36.5V45.625C42.5833 47.2979 41.9877 48.73 40.7964 49.9214C39.605 51.1127 38.1729 51.7083 36.5 51.7083ZM34.2188 66.9167V60.6813C30.5688 60.1236 27.5017 58.4254 25.0177 55.5865C22.5337 52.7476 21.2917 49.4271 21.2917 45.625H25.8542C25.8542 48.5653 26.8934 51.0747 28.9719 53.1531C31.0504 55.2316 33.5597 56.2708 36.5 56.2708C39.4403 56.2708 41.9497 55.2316 44.0281 53.1531C46.1066 51.0747 47.1458 48.5653 47.1458 45.625H51.7083C51.7083 49.4271 50.4663 52.7476 47.9823 55.5865C45.4983 58.4254 42.4313 60.1236 38.7813 60.6813V66.9167H34.2188Z" fill="black"/>
</svg>
