<svg width="44" height="48" viewBox="0 0 44 48" fill="none" xmlns="http://www.w3.org/2000/svg">
<g filter="url(#filter0_d_10_204)">
<rect width="40" height="40" fill="black"/>
<path d="M13.92 6.80005C9.47612 6.80005 5.85999 10.2995 5.85999 14.6V25.4C5.85999 29.7006 9.47612 33.2 13.92 33.2H25.08C29.5238 33.2 33.14 29.7006 33.14 25.4V14.6C33.14 10.2995 29.5238 6.80005 25.08 6.80005H13.92ZM13.92 8.00005H25.08C28.8536 8.00005 31.9 10.9482 31.9 14.6V25.4C31.9 29.0519 28.8536 32 25.08 32H13.92C10.1464 32 7.09999 29.0519 7.09999 25.4V14.6C7.09999 10.9482 10.1464 8.00005 13.92 8.00005ZM26.94 11.6C26.2552 11.6 25.7 12.1373 25.7 12.8C25.7 13.4628 26.2552 14 26.94 14C27.6248 14 28.18 13.4628 28.18 12.8C28.18 12.1373 27.6248 11.6 26.94 11.6ZM19.5 13.4C15.7407 13.4 12.68 16.3621 12.68 20C12.68 23.638 15.7407 26.6 19.5 26.6C23.2592 26.6 26.32 23.638 26.32 20C26.32 16.3621 23.2592 13.4 19.5 13.4ZM19.5 14.6C22.5891 14.6 25.08 17.0106 25.08 20C25.08 22.9895 22.5891 25.4 19.5 25.4C16.4109 25.4 13.92 22.9895 13.92 20C13.92 17.0106 16.4109 14.6 19.5 14.6Z" fill="#E6E3E1"/>
</g>
<defs>
<filter id="filter0_d_10_204" x="-4" y="0" width="48" height="48" filterUnits="userSpaceOnUse" color-interpolation-filters="sRGB">
<feFlood flood-opacity="0" result="BackgroundImageFix"/>
<feColorMatrix in="SourceAlpha" type="matrix" values="0 0 0 0 0 0 0 0 0 0 0 0 0 0 0 0 0 0 127 0" result="hardAlpha"/>
<feOffset dy="4"/>
<feGaussianBlur stdDeviation="2"/>
<feComposite in2="hardAlpha" operator="out"/>
<feColorMatrix type="matrix" values="0 0 0 0 0 0 0 0 0 0 0 0 0 0 0 0 0 0 0.25 0"/>
<feBlend mode="normal" in2="BackgroundImageFix" result="effect1_dropShadow_10_204"/>
<feBlend mode="normal" in="SourceGraphic" in2="effect1_dropShadow_10_204" result="shape"/>
</filter>
</defs>
</svg>
