<svg width="44" height="48" viewBox="0 0 44 48" fill="none" xmlns="http://www.w3.org/2000/svg">
<g filter="url(#filter0_d_4_40)">
<rect width="40" height="40" fill="black"/>
<g clip-path="url(#clip0_4_40)">
<path d="M19.5 34.1667C16.9236 34.1667 14.8212 33.7712 13.1927 32.9802C11.5643 32.1892 10.75 31.1681 10.75 29.9167C10.75 29.35 10.9262 28.8247 11.2787 28.3406C11.6311 27.8566 12.1233 27.4375 12.7552 27.0833L15.0521 29.1729C14.8334 29.2674 14.5964 29.3736 14.3412 29.4917C14.086 29.6097 13.8854 29.7514 13.7396 29.9167C14.0556 30.2944 14.7847 30.625 15.9271 30.9083C17.0695 31.1917 18.2604 31.3333 19.5 31.3333C20.7396 31.3333 21.9367 31.1917 23.0912 30.9083C24.2457 30.625 24.9809 30.2944 25.2969 29.9167C25.1268 29.7278 24.908 29.5743 24.6406 29.4563C24.3733 29.3382 24.1181 29.2319 23.875 29.1375L26.1354 27.0125C26.816 27.3903 27.3386 27.8212 27.7031 28.3052C28.0677 28.7892 28.25 29.3264 28.25 29.9167C28.25 31.1681 27.4358 32.1892 25.8073 32.9802C24.1788 33.7712 22.0764 34.1667 19.5 34.1667ZM19.5365 26.375C21.9427 24.6514 23.7535 22.9219 24.9688 21.1865C26.184 19.451 26.7917 17.7097 26.7917 15.9625C26.7917 13.5542 26.0018 11.7361 24.4219 10.5083C22.842 9.28056 21.2014 8.66667 19.5 8.66667C17.7986 8.66667 16.158 9.28056 14.5781 10.5083C12.9983 11.7361 12.2084 13.5542 12.2084 15.9625C12.2084 17.5444 12.8038 19.1913 13.9948 20.9031C15.1858 22.6149 17.033 24.4389 19.5365 26.375ZM19.5 29.9167C16.0729 27.4611 13.5148 25.0764 11.8255 22.7625C10.1363 20.4486 9.29169 18.1819 9.29169 15.9625C9.29169 14.2861 9.60158 12.8163 10.2214 11.5531C10.8412 10.2899 11.6372 9.23334 12.6094 8.38334C13.5816 7.53334 14.6754 6.89584 15.8906 6.47084C17.1059 6.04584 18.309 5.83334 19.5 5.83334C20.691 5.83334 21.8941 6.04584 23.1094 6.47084C24.3247 6.89584 25.4184 7.53334 26.3906 8.38334C27.3629 9.23334 28.1589 10.2899 28.7787 11.5531C29.3985 12.8163 29.7084 14.2861 29.7084 15.9625C29.7084 18.1819 28.8637 20.4486 27.1745 22.7625C25.4853 25.0764 22.9271 27.4611 19.5 29.9167ZM19.5 18.5833C20.3021 18.5833 20.9887 18.3059 21.5599 17.751C22.1311 17.1962 22.4167 16.5292 22.4167 15.75C22.4167 14.9708 22.1311 14.3038 21.5599 13.749C20.9887 13.1941 20.3021 12.9167 19.5 12.9167C18.6979 12.9167 18.0113 13.1941 17.4401 13.749C16.8689 14.3038 16.5834 14.9708 16.5834 15.75C16.5834 16.5292 16.8689 17.1962 17.4401 17.751C18.0113 18.3059 18.6979 18.5833 19.5 18.5833Z" fill="#E6E3E1"/>
</g>
</g>
<defs>
<filter id="filter0_d_4_40" x="-4" y="0" width="48" height="48" filterUnits="userSpaceOnUse" color-interpolation-filters="sRGB">
<feFlood flood-opacity="0" result="BackgroundImageFix"/>
<feColorMatrix in="SourceAlpha" type="matrix" values="0 0 0 0 0 0 0 0 0 0 0 0 0 0 0 0 0 0 127 0" result="hardAlpha"/>
<feOffset dy="4"/>
<feGaussianBlur stdDeviation="2"/>
<feComposite in2="hardAlpha" operator="out"/>
<feColorMatrix type="matrix" values="0 0 0 0 0 0 0 0 0 0 0 0 0 0 0 0 0 0 0.25 0"/>
<feBlend mode="normal" in2="BackgroundImageFix" result="effect1_dropShadow_4_40"/>
<feBlend mode="normal" in="SourceGraphic" in2="effect1_dropShadow_4_40" result="shape"/>
</filter>
<clipPath id="clip0_4_40">
<rect width="29" height="30" fill="white" transform="translate(5 5)"/>
</clipPath>
</defs>
</svg>
