<svg width="129" height="134" viewBox="0 0 129 134" fill="none" xmlns="http://www.w3.org/2000/svg">
<g clip-path="url(#clip0_49_7)">
<path d="M64.4918 129.966C53.0797 129.966 43.767 128.214 36.5537 124.711C29.3404 121.207 25.7338 116.684 25.7338 111.141C25.7338 108.631 26.5143 106.304 28.0754 104.16C29.6365 102.016 31.8166 100.159 34.6158 98.5904L44.7898 107.846C43.8208 108.265 42.7712 108.735 41.6407 109.258C40.5103 109.781 39.6221 110.409 38.9761 111.141C40.3757 112.814 43.6055 114.278 48.6656 115.533C53.7257 116.788 59.0011 117.416 64.4918 117.416C69.9825 117.416 75.2848 116.788 80.3987 115.533C85.5126 114.278 88.7694 112.814 90.169 111.141C89.4153 110.304 88.4464 109.624 87.2621 109.101C86.0778 108.578 84.9474 108.108 83.8708 107.689L93.8833 98.2767C96.8978 99.95 99.2125 101.859 100.827 104.003C102.442 106.147 103.25 108.526 103.25 111.141C103.25 116.684 99.6432 121.207 92.4299 124.711C85.2166 128.214 75.9039 129.966 64.4918 129.966ZM64.6533 95.4529C75.3117 87.8182 83.3325 80.1573 88.7155 72.4703C94.0986 64.7833 96.7901 57.0702 96.7901 49.3309C96.7901 38.6632 93.2911 30.6101 86.2932 25.1717C79.2952 19.7333 72.0281 17.0141 64.4918 17.0141C56.9555 17.0141 49.6884 19.7333 42.6904 25.1717C35.6924 30.6101 32.1934 38.6632 32.1934 49.3309C32.1934 56.3381 34.8311 63.6329 40.1065 71.2153C45.3819 78.7977 53.5642 86.8769 64.6533 95.4529ZM64.4918 111.141C49.3116 100.264 37.9802 89.7007 30.4978 79.4514C23.0153 69.202 19.2741 59.1619 19.2741 49.3309C19.2741 41.9053 20.6468 35.3949 23.3921 29.7996C26.1375 24.2043 29.6634 19.5241 33.9699 15.7591C38.2763 11.994 43.1211 9.1702 48.5041 7.28766C53.8872 5.40513 59.2164 4.46387 64.4918 4.46387C69.7672 4.46387 75.0964 5.40513 80.4795 7.28766C85.8625 9.1702 90.7073 11.994 95.0137 15.7591C99.3202 19.5241 102.846 24.2043 105.591 29.7996C108.337 35.3949 109.709 41.9053 109.709 49.3309C109.709 59.1619 105.968 69.202 98.4858 79.4514C91.0033 89.7007 79.672 100.264 64.4918 111.141ZM64.4918 60.9398C68.0446 60.9398 71.086 59.7109 73.6161 57.2532C76.1461 54.7954 77.4111 51.8409 77.4111 48.3896C77.4111 44.9383 76.1461 41.9838 73.6161 39.526C71.086 37.0683 68.0446 35.8394 64.4918 35.8394C60.939 35.8394 57.8975 37.0683 55.3675 39.526C52.8375 41.9838 51.5724 44.9383 51.5724 48.3896C51.5724 51.8409 52.8375 54.7954 55.3675 57.2532C57.8975 59.7109 60.939 60.9398 64.4918 60.9398Z" fill="#E6E3E1"/>
</g>
<defs>
<clipPath id="clip0_49_7">
<rect width="128.455" height="132.885" fill="white" transform="translate(0.264221 0.772461)"/>
</clipPath>
</defs>
</svg>
