<svg width="93" height="85" viewBox="0 0 93 85" fill="none" xmlns="http://www.w3.org/2000/svg">
<path d="M27.125 63.75H34.875V56.6666H42.625V49.5833H34.875V42.5H27.125V49.5833H19.375V56.6666H27.125V63.75ZM50.375 51.3541H73.625V46.0416H50.375V51.3541ZM50.375 61.9791H65.875V56.6666H50.375V61.9791ZM15.5 77.9166C13.3687 77.9166 11.5443 77.2231 10.0266 75.8359C8.50885 74.4488 7.75 72.7812 7.75 70.8333V31.875C7.75 29.9271 8.50885 28.2595 10.0266 26.8724C11.5443 25.4852 13.3687 24.7916 15.5 24.7916H34.875V14.1666C34.875 12.2187 35.6339 10.5512 37.1516 9.16404C38.6693 7.77689 40.4937 7.08331 42.625 7.08331H50.375C52.5062 7.08331 54.3307 7.77689 55.8484 9.16404C57.3661 10.5512 58.125 12.2187 58.125 14.1666V24.7916H77.5C79.6312 24.7916 81.4557 25.4852 82.9734 26.8724C84.4911 28.2595 85.25 29.9271 85.25 31.875V70.8333C85.25 72.7812 84.4911 74.4488 82.9734 75.8359C81.4557 77.2231 79.6312 77.9166 77.5 77.9166H15.5ZM15.5 70.8333H77.5V31.875H58.125C58.125 33.8229 57.3661 35.4904 55.8484 36.8776C54.3307 38.2647 52.5062 38.9583 50.375 38.9583H42.625C40.4937 38.9583 38.6693 38.2647 37.1516 36.8776C35.6339 35.4904 34.875 33.8229 34.875 31.875H15.5V70.8333ZM42.625 31.875H50.375V14.1666H42.625V31.875Z" fill="#E6E3E1"/>
</svg>
