<svg width="90" height="93" viewBox="0 0 90 93" fill="none" xmlns="http://www.w3.org/2000/svg">
<path d="M37.5 85.25V77.5H86.25V85.25H37.5ZM41.25 73.625C41.25 68.3937 42.8438 63.8245 46.0312 59.9172C49.2188 56.0099 53.25 53.6042 58.125 52.7V50.2781C58.125 49.1802 58.4844 48.2599 59.2031 47.5172C59.9219 46.7745 60.8125 46.4031 61.875 46.4031C62.9375 46.4031 63.8281 46.7745 64.5469 47.5172C65.2656 48.2599 65.625 49.1802 65.625 50.2781V52.7C70.4375 53.6042 74.4531 56.0099 77.6719 59.9172C80.8906 63.8245 82.5 68.3937 82.5 73.625H41.25ZM51.0938 65.7781H72.4688C71.2812 64.0344 69.7656 62.6297 67.9219 61.5641C66.0781 60.4984 64.0625 59.9656 61.875 59.9656C59.625 59.9656 57.5625 60.4984 55.6875 61.5641C53.8125 62.6297 52.2812 64.0344 51.0938 65.7781ZM3.75 50.375V7.75H26.25V13.3687L52.5 5.8125L82.5 15.5V19.375C82.5 22.6042 81.4062 25.349 79.2188 27.6094C77.0312 29.8698 74.375 31 71.25 31H63.75V33.325C63.75 34.9396 63.2969 36.4089 62.3906 37.7328C61.4844 39.0568 60.3125 40.0094 58.875 40.5906L33.5625 50.375H3.75ZM11.25 42.625H18.75V15.5H11.25V42.625ZM26.25 42.625H32.25L54 34.3906C54.6875 34.1323 55.2344 33.6964 55.6406 33.0828C56.0469 32.4693 56.25 31.775 56.25 31H49.5938L38.625 34.6812L36.375 27.3187L48.0938 23.25H71.25C71.8125 23.25 72.5156 23.0401 73.3594 22.6203C74.2031 22.2005 74.625 21.7 74.625 21.1187L52.3125 13.95L26.25 21.3125V42.625Z" fill="black"/>
</svg>
