<svg width="44" height="48" viewBox="0 0 44 48" fill="none" xmlns="http://www.w3.org/2000/svg">
<g filter="url(#filter0_d_1_28)">
<rect width="40" height="40" fill="black"/>
<g clip-path="url(#clip0_1_28)">
<path d="M31.0938 31.875C28.0556 31.875 25.0538 31.2505 22.0885 30.0016C19.1233 28.7526 16.4253 26.9823 13.9948 24.6906C11.5642 22.399 9.68663 19.8552 8.36198 17.0594C7.03733 14.2635 6.375 11.4333 6.375 8.56875C6.375 8.15625 6.52083 7.8125 6.8125 7.5375C7.10417 7.2625 7.46875 7.125 7.90625 7.125H13.8125C14.1528 7.125 14.4566 7.23385 14.724 7.45156C14.9913 7.66927 15.1493 7.92708 15.1979 8.225L16.1458 13.0375C16.1944 13.4042 16.1823 13.7135 16.1094 13.9656C16.0365 14.2177 15.9028 14.4354 15.7083 14.6188L12.1719 17.9875C12.658 18.8354 13.2352 19.6547 13.9036 20.4453C14.572 21.2359 15.3073 21.9979 16.1094 22.7313C16.8628 23.4417 17.6528 24.1005 18.4792 24.7078C19.3056 25.3151 20.1806 25.8708 21.1042 26.375L24.5312 23.1438C24.75 22.9375 25.0356 22.7828 25.388 22.6797C25.7404 22.5766 26.0868 22.5479 26.4271 22.5938L31.4583 23.5562C31.7986 23.6479 32.0781 23.8141 32.2969 24.0547C32.5156 24.2953 32.625 24.5646 32.625 24.8625V30.4312C32.625 30.8438 32.4792 31.1875 32.1875 31.4625C31.8958 31.7375 31.5312 31.875 31.0938 31.875ZM10.7865 15.375L13.1927 13.1063L12.5729 9.875H9.32812C9.44965 10.8146 9.61979 11.7427 9.83854 12.6594C10.0573 13.576 10.3733 14.4813 10.7865 15.375ZM23.8385 27.6812C24.7865 28.0708 25.7526 28.3802 26.737 28.6094C27.7214 28.8385 28.7118 28.9875 29.7083 29.0562V26.0312L26.2812 25.3781L23.8385 27.6812Z" fill="#E6E3E1"/>
</g>
</g>
<defs>
<filter id="filter0_d_1_28" x="-4" y="0" width="48" height="48" filterUnits="userSpaceOnUse" color-interpolation-filters="sRGB">
<feFlood flood-opacity="0" result="BackgroundImageFix"/>
<feColorMatrix in="SourceAlpha" type="matrix" values="0 0 0 0 0 0 0 0 0 0 0 0 0 0 0 0 0 0 127 0" result="hardAlpha"/>
<feOffset dy="4"/>
<feGaussianBlur stdDeviation="2"/>
<feComposite in2="hardAlpha" operator="out"/>
<feColorMatrix type="matrix" values="0 0 0 0 0 0 0 0 0 0 0 0 0 0 0 0 0 0 0.25 0"/>
<feBlend mode="normal" in2="BackgroundImageFix" result="effect1_dropShadow_1_28"/>
<feBlend mode="normal" in="SourceGraphic" in2="effect1_dropShadow_1_28" result="shape"/>
</filter>
<clipPath id="clip0_1_28">
<rect width="35" height="33" fill="white" transform="translate(2 3)"/>
</clipPath>
</defs>
</svg>
