<svg width="44" height="48" viewBox="0 0 44 48" fill="none" xmlns="http://www.w3.org/2000/svg">
<g filter="url(#filter0_d_4_27)">
<rect width="40" height="40" fill="black"/>
<path d="M19.5142 7.5C12.8611 7.5 7.44507 13.098 7.44265 19.9805C7.44145 22.1805 7.99846 24.3282 9.05455 26.2207L7.41669 32.5L13.7392 30.9546C15.5022 31.9496 17.4868 32.4719 19.5071 32.4732H19.5118C26.1637 32.4732 31.5774 26.8739 31.581 19.9927C31.5834 16.6564 30.3293 13.5197 28.0504 11.1597C25.7715 8.80093 22.7429 7.50125 19.5142 7.5ZM19.5118 10C22.0928 10.0013 24.5184 11.0423 26.3417 12.9273C28.1651 14.8148 29.1668 17.3227 29.1643 19.9902C29.1619 25.4952 24.8334 29.9732 19.5095 29.9732C17.8988 29.9719 16.3033 29.5535 14.898 28.7598L14.0838 28.3008L13.1846 28.5205L10.8057 29.1016L11.3863 26.8701L11.6482 25.8691L11.1479 24.9707C10.3045 23.4607 9.85811 21.7342 9.85932 19.9805C9.86174 14.478 14.1915 10 19.5118 10ZM15.2425 14.2188C15.0407 14.2188 14.7145 14.2969 14.4378 14.6094C14.1611 14.9206 13.3805 15.6745 13.3805 17.2095C13.3805 18.7445 14.4614 20.2283 14.6124 20.437C14.7622 20.6445 16.6988 23.8941 19.7643 25.1441C22.3115 26.1828 22.8288 25.9778 23.3823 25.9253C23.9357 25.8741 25.1676 25.1721 25.419 24.4434C25.6703 23.7146 25.6709 23.0877 25.596 22.959C25.521 22.829 25.3198 22.7515 25.0177 22.5952C24.7169 22.439 23.2341 21.6858 22.9574 21.582C22.6807 21.4783 22.4783 21.4258 22.2778 21.7383C22.0772 22.0508 21.5007 22.7515 21.3243 22.959C21.1479 23.1677 20.9727 23.1958 20.6706 23.0395C20.3685 22.882 19.3972 22.5517 18.2445 21.4892C17.3479 20.663 16.7429 19.6435 16.5665 19.331C16.3913 19.0198 16.55 18.8488 16.701 18.6938C16.8363 18.5538 17.0007 18.3295 17.1518 18.147C17.3016 17.9645 17.3536 17.8344 17.4539 17.6269C17.5542 17.4194 17.5028 17.2363 17.4279 17.0801C17.353 16.9238 16.7663 15.3831 16.4981 14.7656C16.2721 14.2469 16.0334 14.2348 15.8184 14.2261C15.6432 14.2186 15.4431 14.2188 15.2425 14.2188Z" fill="#E6E3E1"/>
</g>
<defs>
<filter id="filter0_d_4_27" x="-4" y="0" width="48" height="48" filterUnits="userSpaceOnUse" color-interpolation-filters="sRGB">
<feFlood flood-opacity="0" result="BackgroundImageFix"/>
<feColorMatrix in="SourceAlpha" type="matrix" values="0 0 0 0 0 0 0 0 0 0 0 0 0 0 0 0 0 0 127 0" result="hardAlpha"/>
<feOffset dy="4"/>
<feGaussianBlur stdDeviation="2"/>
<feComposite in2="hardAlpha" operator="out"/>
<feColorMatrix type="matrix" values="0 0 0 0 0 0 0 0 0 0 0 0 0 0 0 0 0 0 0.25 0"/>
<feBlend mode="normal" in2="BackgroundImageFix" result="effect1_dropShadow_4_27"/>
<feBlend mode="normal" in="SourceGraphic" in2="effect1_dropShadow_4_27" result="shape"/>
</filter>
</defs>
</svg>
